<?xml version="1.0" encoding="UTF-8"?>
<svg version="1.1" xmlns="http://www.w3.org/2000/svg" width="1600" height="1644">
<path d="M0 0 C46.86 0 93.72 0 142 0 C142 87.78 142 175.56 142 266 C162.13 259.4 182.26 252.8 203 246 C271.08580139 225.6599021 326.91991581 223.78843796 391.375 256.6875 C392.23464355 257.11957764 393.09428711 257.55165527 393.97998047 257.99682617 C404.19067259 263.31516746 413.21264793 269.63822115 423 276 C423.33 184.92 423.66 93.84 424 0 C470.86 0 517.72 0 566 0 C566.11295749 44.19611811 566.11295749 44.19611811 566.15245056 59.85742188 C566.15635625 61.40621471 566.15635625 61.40621471 566.16034084 62.9862963 C566.27367965 107.96284023 566.38311359 152.93939377 566.49095565 197.91595119 C566.49997218 201.67589742 566.50899892 205.43584362 566.51802588 209.19578981 C567.04936708 430.66159893 567.04936708 430.66159893 567.0625 588.6875 C567.06207076 590.02771107 567.06164224 591.36792215 567.06121445 592.70813322 C567.05826488 601.83691652 567.05475278 610.96569951 567.05078125 620.09448242 C567.0502903 621.2272614 567.04979935 622.36004037 567.04929352 623.52714598 C567.0395631 645.01810495 567.01886459 666.50904453 567 688 C519.81 688 472.62 688 424 688 C424 595.93 424 503.86 424 409 C397.10320573 411.68967943 374.87953607 419.16945227 349.99853516 428.89526367 C334.98110039 434.75629318 320.01898482 439.83325219 304.25 443.25 C303.20694702 443.47695557 303.20694702 443.47695557 302.14282227 443.70849609 C287.26556105 446.73073325 272.63092435 447.3714418 257.5 447.3125 C256.52922516 447.31067719 255.55845032 447.30885437 254.55825806 447.30697632 C239.834553 447.26045568 225.50277204 446.75488164 211 444 C210.06607422 443.82839355 209.13214844 443.65678711 208.16992188 443.47998047 C197.44388341 441.46208588 186.90312822 438.84201541 176.4375 435.75 C175.6137085 435.51120117 174.78991699 435.27240234 173.94116211 435.02636719 C163.30165904 431.74769825 153.37937501 427.24610796 143 423 C142.67 510.78 142.34 598.56 142 689 C95.14 689 48.28 689 0 689 C0 461.63 0 234.26 0 0 Z " fill="#81A23A" transform="translate(550,364)"/>
<path d="M0 0 C1.75112595 0.19408447 1.75112595 0.19408447 3.53762817 0.39208984 C5.96591517 0.66226389 8.39396619 0.93456726 10.82177734 1.20898438 C14.54851996 1.62959435 18.27612883 2.04179749 22.00390625 2.453125 C24.37765906 2.71825899 26.75135908 2.9838662 29.125 3.25 C30.2373703 3.37294434 31.3497406 3.49588867 32.49581909 3.62255859 C33.52184235 3.73937988 34.5478656 3.85620117 35.60498047 3.9765625 C36.50634735 4.07791504 37.40771423 4.17926758 38.33639526 4.28369141 C40.6328125 4.625 40.6328125 4.625 43.6328125 5.625 C42.99487688 10.95726923 41.28641727 15.5280636 39.31640625 20.4765625 C38.98165787 21.33067719 38.64690948 22.18479187 38.30201721 23.06478882 C37.230237 25.79537442 36.15036178 28.5226761 35.0703125 31.25 C34.37122259 33.02844065 33.67265047 34.80708493 32.97460938 36.5859375 C28.24468295 48.61920772 23.4384606 60.62182209 18.6328125 72.625 C17.9779099 72.63677402 17.3230073 72.64854805 16.64825916 72.66067886 C-73.92717148 74.29275444 -164.48348165 76.09379273 -359.62162781 87.7162323 C-365.5074263 88.43676794 -371.39053561 88.98374715 -377.30078125 89.45703125 C-405.9139567 91.8864684 -433.04698406 99.32667055 -460.57937622 107.0791626 C-469.86924248 109.68914851 -479.18849559 112.15054453 -488.54148293 114.52379417 C-519.24574282 122.3279974 -548.44622068 130.80075993 -576.62915039 145.71240234 C-580.78295414 147.88996291 -585.06456129 149.76319079 -589.3671875 151.625 C-571.96970591 149.29740362 -554.6840033 146.36583928 -537.39031982 143.38085938 C-534.51384916 142.88528587 -531.63677498 142.39327601 -528.75965405 141.90149403 C-526.59738833 141.53143346 -524.43542558 141.15964354 -522.27351379 140.78752136 C-519.25280124 140.26758192 -516.23109082 139.75395824 -513.20878601 139.24336243 C-505.53730879 137.93667502 -497.89584473 136.55160284 -490.2774868 134.96164227 C-454.652783 127.53733455 -419.32443767 125.21817038 -383.07599884 123.52678108 C-375.17078699 123.1563081 -367.26799195 122.74277008 -359.36499059 122.32823753 C-321.85888657 120.36696859 -284.34646669 118.86798105 -246.80606461 117.73012924 C-241.1071255 117.55590809 -235.40844152 117.37369958 -229.7097168 117.19262695 C-218.76932689 116.84657237 -207.8285269 116.51595585 -196.88745117 116.19238281 C-192.54099822 116.06361062 -188.19466174 115.93158019 -183.84838867 115.796875 C-145.11450814 114.59844833 -106.56795984 114.40234606 -67.83306885 115.49383545 C-64.5279429 115.58586948 -61.22270258 115.67332439 -57.91744995 115.76067162 C-38.39653943 116.27706989 -18.88092325 116.88170175 0.6328125 117.625 C-1.1275284 121.27466597 -3.3044623 124.47870103 -5.6796875 127.75 C-6.11700195 128.35690674 -6.55431641 128.96381348 -7.00488281 129.58911133 C-7.95659521 130.90910516 -8.90960988 132.22816081 -9.86376953 133.54638672 C-11.38843557 135.6543774 -12.90765184 137.76620418 -14.42578125 139.87890625 C-21.73505151 150.04021623 -29.13610678 160.1318385 -36.57470703 170.19873047 C-39.02706361 173.51819652 -41.47785072 176.83880077 -43.92333984 180.16333008 C-45.12318788 181.78723179 -46.33041069 183.40571377 -47.54541016 185.01831055 C-50.04877223 188.35695004 -52.44794932 191.61690273 -54.42578125 195.296875 C-56.22568111 198.4557193 -57.50375936 200.39140711 -60.3671875 202.625 C-63.15292854 202.83198117 -65.38110514 202.80272808 -68.1171875 202.51171875 C-68.87159622 202.44907333 -69.62600494 202.38642792 -70.40327454 202.32188416 C-75.97978079 201.83525842 -81.53847884 201.16568208 -87.09286499 200.4743042 C-108.42185039 197.82285968 -129.69806135 197.148911 -151.16122437 196.70371246 C-175.38736395 196.19489208 -199.42821219 194.802875 -223.57304764 192.77124023 C-254.55043384 190.16561363 -285.27660995 188.59867247 -316.38232422 188.63745117 C-321.15717281 188.64162949 -325.92593385 188.58094998 -330.69970703 188.48168945 C-360.98334886 187.98786358 -391.18766723 190.26521303 -421.38721085 192.25911713 C-425.24771833 192.5139368 -429.10844205 192.76529919 -432.96924108 193.01565814 C-471.10976978 195.49045197 -509.19242416 198.20689199 -547.1796875 202.5 C-548.01516365 202.59381329 -548.8506398 202.68762657 -549.71143341 202.78428268 C-555.1267315 203.39422132 -560.53892517 204.02690581 -565.94921875 204.6796875 C-567.22919235 204.83251694 -568.50916595 204.98534637 -569.82792664 205.14280701 C-584.36785483 206.97921518 -598.22770762 210.58940239 -612.25390625 214.6953125 C-613.93052963 215.18228508 -615.60727457 215.66883932 -617.28413391 216.15499878 C-621.65214664 217.42266202 -626.01841039 218.69624767 -630.38433838 219.97106934 C-633.96161914 221.01454851 -637.54010224 222.05386728 -641.1186552 223.09297371 C-648.50440941 225.23759057 -655.88939359 227.38486406 -663.2722168 229.53955078 C-663.95009247 229.73695862 -664.62796814 229.93436646 -665.3263855 230.13775635 C-668.02324392 230.92578963 -670.70135597 231.73638949 -673.3671875 232.625 C-668.83024348 232.65106978 -664.29334644 232.66844906 -659.75634766 232.67993164 C-658.23518107 232.68475038 -656.71401837 232.69138704 -655.19287109 232.70043945 C-650.04162908 232.73016488 -644.89219377 232.70622052 -639.74111938 232.65533447 C-637.39560949 232.63424637 -635.05002772 232.6204127 -632.70443726 232.61224365 C-608.99457028 232.48768328 -585.42273513 230.96275661 -561.79296875 229.15625 C-561.01186029 229.09670474 -560.23075183 229.03715948 -559.42597342 228.97580981 C-544.71763839 227.8541184 -530.01116986 226.7083277 -515.30649137 225.53968853 C-474.05458241 222.26235755 -433.08705053 219.81554986 -391.69039917 219.65716553 C-386.06226252 219.63417807 -380.43613071 219.56477212 -374.80883789 219.46728516 C-353.32307245 219.10216483 -331.85138612 219.17065546 -310.3671875 219.625 C-309.62588844 219.63983932 -308.88458939 219.65467865 -308.12082672 219.66996765 C-240.54942676 221.05456529 -174.6000881 236.91235642 -109.3671875 253.625 C-110.73035916 256.46438439 -111.93163299 258.40441746 -114.28125 260.515625 C-114.86962646 261.05243896 -115.45800293 261.58925293 -116.06420898 262.14233398 C-116.70044189 262.71411377 -117.3366748 263.28589355 -117.9921875 263.875 C-124.42370254 269.75387418 -130.63335293 275.80991251 -136.73486328 282.03027344 C-139.81163771 285.14783693 -142.92218288 288.14975935 -146.24609375 291.00390625 C-151.03467214 295.1323918 -155.43448963 299.62115128 -159.8671875 304.125 C-164.98101706 309.32091351 -170.12374838 314.34533958 -175.66503906 319.08398438 C-177.85950411 321.07071177 -179.63526656 323.32521507 -181.4921875 325.625 C-184.16691278 328.29203487 -185.56199385 329.55483956 -189.37792873 329.88734055 C-190.48526898 329.77134129 -191.59260923 329.65534203 -192.73350525 329.53582764 C-193.97556669 329.40737206 -195.21762814 329.27891647 -196.4973278 329.1465683 C-202.14138787 328.3858785 -207.74083758 327.46275116 -213.34059262 326.42639637 C-262.02146968 317.48856927 -310.19264463 314.1180329 -359.60424864 312.64300489 C-369.40258933 312.34816383 -379.19844809 311.9914591 -388.99466121 311.63381338 C-433.06277923 310.03415459 -476.73360669 308.94957749 -520.782902 311.57842779 C-525.49769162 311.85816471 -530.21301686 312.12860361 -534.92826843 312.40042114 C-542.82257132 312.85686241 -550.71645806 313.31999767 -558.61010742 313.78759766 C-567.68716164 314.32523982 -576.7647416 314.85314626 -585.84267551 315.37571037 C-594.66038348 315.8834291 -603.4777436 316.39695191 -612.29494286 316.91342545 C-616.01248023 317.13114876 -619.73011395 317.34709943 -623.44783974 317.56158066 C-627.82741683 317.81458576 -632.20665951 318.07279061 -636.58570862 318.3347702 C-638.17653627 318.42918253 -639.76746204 318.52196062 -641.35849571 318.61283493 C-655.1888958 319.40471125 -668.96131649 320.66288484 -682.60424805 323.1394043 C-683.39494973 323.27878324 -684.18565142 323.41816217 -685.00031376 323.56176472 C-687.58578908 324.01911006 -690.16986746 324.48383062 -692.75390625 324.94921875 C-694.650047 325.28748771 -696.5462275 325.62553395 -698.44244385 325.96337891 C-703.57641169 326.88022929 -708.70888664 327.80519351 -713.84098434 328.73244858 C-717.07018634 329.31529744 -720.29982602 329.89566549 -723.52957153 330.47549438 C-751.07506036 335.4255064 -778.57499416 340.58744325 -806.0390625 345.96875 C-807.40463041 346.23613932 -808.77019857 346.50352735 -810.13576698 346.77091408 C-823.48786531 349.38627436 -836.83682326 352.01691264 -850.17986488 354.67810631 C-855.14330107 355.6665894 -860.10810884 356.64805986 -865.07317352 357.62832642 C-867.39281666 358.0883684 -869.71175863 358.55196159 -872.02994537 359.01928711 C-875.20315869 359.65896758 -878.37844306 360.28717034 -881.55444336 360.9128418 C-882.48296962 361.10326396 -883.41149588 361.29368612 -884.36815929 361.48987865 C-889.44147054 362.4754529 -893.50756719 363.20169817 -898.22558594 360.6003418 C-898.8034082 360.17922119 -899.38123047 359.75810059 -899.9765625 359.32421875 C-900.63978516 358.84791016 -901.30300781 358.37160156 -901.98632812 357.88085938 C-902.68951172 357.36330078 -903.39269531 356.84574219 -904.1171875 356.3125 C-905.64306819 355.21201635 -907.16911446 354.11176225 -908.6953125 353.01171875 C-909.47197266 352.44759277 -910.24863281 351.8834668 -911.04882812 351.30224609 C-914.6317431 348.71014143 -918.24990286 346.16879777 -921.8671875 343.625 C-923.28404839 342.62527521 -924.70071453 341.62527434 -926.1171875 340.625 C-927.1690625 339.8825 -927.1690625 339.8825 -928.2421875 339.125 C-941.70052083 329.625 -955.15885417 320.125 -968.6171875 310.625 C-969.3191626 310.1295166 -970.0211377 309.6340332 -970.74438477 309.12353516 C-972.15383559 308.12857148 -973.56317895 307.13345554 -974.97241211 306.13818359 C-978.62359175 303.55983639 -982.27688637 300.98456529 -985.93359375 298.4140625 C-986.68640625 297.88425781 -987.43921875 297.35445312 -988.21484375 296.80859375 C-989.63731758 295.80759365 -991.06043986 294.80751403 -992.484375 293.80859375 C-997.17997999 290.502221 -1001.79023324 287.09360965 -1006.3671875 283.625 C-1003.70958782 280.59153053 -1000.43513611 278.73859154 -996.98828125 276.73828125 C-996.03587303 276.17768257 -996.03587303 276.17768257 -995.06422424 275.60575867 C-993.69535859 274.80033325 -992.32535703 273.99683591 -990.9543457 273.19506836 C-987.29291861 271.05310232 -983.64055503 268.89580671 -979.98828125 266.73828125 C-979.25080658 266.30291046 -978.51333191 265.86753967 -977.75350952 265.41897583 C-971.24141442 261.56692207 -964.79603451 257.61461585 -958.3671875 253.625 C-947.23952055 246.72952361 -936.00821459 240.02033825 -924.74023438 233.35742188 C-923.78955582 232.7952446 -923.78955582 232.7952446 -922.81967163 232.22171021 C-921.55338027 231.47323376 -920.28679955 230.72524664 -919.01992798 229.97775269 C-915.86396796 228.11323541 -912.71717119 226.23555326 -909.58544922 224.33056641 C-901.75999229 219.57522154 -893.8411416 215.10132524 -885.73025513 210.85168457 C-875.87155227 205.68341111 -866.09085697 200.40576705 -856.4296875 194.875 C-848.04040553 190.07567319 -839.54749266 185.53613859 -830.9465332 181.12817383 C-826.3302953 178.74776263 -821.77845636 176.31867685 -817.3203125 173.65234375 C-800.42257717 163.57302113 -782.5542709 155.96242712 -764.52095032 148.17164612 C-758.69899952 145.65252821 -752.9048816 143.08050079 -747.1328125 140.44921875 C-725.66259571 130.68048092 -703.86098867 122.00160742 -681.79345703 113.67578125 C-677.45389704 112.03832074 -673.12083286 110.38457674 -668.79026794 108.72349548 C-647.38699 100.51958981 -625.8158419 92.91687008 -604.09156799 85.60772705 C-603.10873337 85.27698181 -602.12589874 84.94623657 -601.11328125 84.60546875 C-600.13177597 84.27520691 -599.15027069 83.94494507 -598.13902283 83.60467529 C-591.51951729 81.37032436 -584.9234706 79.07610551 -578.33984375 76.73828125 C-556.62732075 69.03384552 -534.84150058 61.75908029 -512.70004272 55.37335205 C-507.38760117 53.83747279 -502.10603674 52.22971308 -496.8416481 50.5376091 C-471.76139694 42.50607543 -447.29219602 37.84921622 -421.156147 34.89664078 C-413.05022624 33.96714307 -404.95451768 32.94878676 -396.85714149 31.94807243 C-393.80549166 31.57185636 -390.75337387 31.19961247 -387.70121765 30.82752991 C-375.62940522 29.34569448 -363.60397344 27.68471455 -351.59765625 25.7421875 C-350.87281414 25.62495771 -350.14797203 25.50772793 -349.40116501 25.38694572 C-345.8178091 24.80561252 -342.23531316 24.21914563 -338.65319824 23.63021851 C-301.32529535 17.4988053 -263.8341039 13.52414106 -226.19873142 9.80467415 C-217.28098291 8.92293994 -208.3696694 7.99660157 -199.4609375 7.02734375 C-196.26372047 6.68365952 -193.06641574 6.34080399 -189.86907959 5.99822998 C-188.03984734 5.8006566 -186.21090921 5.60032587 -184.38238525 5.39630127 C-165.10664712 3.25560203 -145.73169187 2.51691569 -126.3671875 1.625 C-125.41073082 1.58063686 -124.45427414 1.53627373 -123.46883392 1.49056625 C-110.09475877 0.87041845 -96.71958217 0.27976537 -83.34326172 -0.28979492 C-79.06959979 -0.47217717 -74.79620516 -0.65966257 -70.52294922 -0.85131836 C-65.23926943 -1.08826056 -59.95528197 -1.31662172 -54.67097092 -1.53902626 C-52.69763956 -1.62342753 -50.72442704 -1.71066686 -48.75136185 -1.80107689 C-32.28335642 -2.55192376 -16.38968033 -1.85881976 0 0 Z " fill="#8FA93C" transform="translate(1381.3671875,1081.375)"/>
<path d="M0 0 C0.92214294 0.04323395 1.84428589 0.0864679 2.79437256 0.13101196 C85.63841286 4.13119208 167.09063533 24.19064872 254.5625 64.25 C255.16578125 64.54068359 255.7690625 64.83136719 256.390625 65.13085938 C274.92001635 74.07543345 292.97612808 83.54335185 310.5625 94.25 C311.47032227 94.7975293 312.37814453 95.34505859 313.31347656 95.90917969 C326.03643858 103.590366 338.39534097 111.71809929 350.5625 120.25 C351.1920459 120.68908691 351.8215918 121.12817383 352.47021484 121.58056641 C375.76971145 137.85655709 398.14093511 155.74580125 419.0703125 174.9765625 C421.26745068 176.98084843 423.49530081 178.93613416 425.75 180.875 C429.19272127 183.86196387 432.38136427 187.05055209 435.578125 190.296875 C437.4302947 192.11987667 439.3342518 193.81603666 441.3125 195.5 C449.07719767 202.19264868 456.28060402 209.58874356 462.921875 217.390625 C464.72397789 219.43300828 466.62188947 221.33901711 468.5625 223.25 C472.44260533 227.08567664 476.01935217 231.10376318 479.5625 235.25 C480.42488281 236.24644531 481.28726562 237.24289062 482.17578125 238.26953125 C494.98170709 253.08580312 507.24364332 268.20923044 518.87402344 283.96923828 C520.34477361 285.95589937 521.82832877 287.93162209 523.3203125 289.90234375 C547.40518987 321.9118637 567.87187189 356.74044176 586.08300781 392.35839844 C587.06511438 394.27788197 588.05141092 396.19522778 589.04199219 398.11035156 C616.15334372 450.56375746 635.6336828 506.95225856 649.5625 564.25 C649.74341187 564.99062683 649.92432373 565.73125366 650.11071777 566.49432373 C658.09527429 599.28076244 663.50420096 632.48854704 667.375 666 C667.52405289 667.27061279 667.52405289 667.27061279 667.67611694 668.56689453 C670.97211878 697.02822662 671.94436641 725.40676828 671.88055801 754.02786636 C671.87490602 756.60536003 671.87209282 759.18284709 671.86947632 761.76034546 C671.83289761 786.56350046 671.47698716 811.23689719 668.8125 835.92041016 C668.55235504 838.34453434 668.30470209 840.76972552 668.05859375 843.1953125 C658.73721782 933.90594773 633.82170041 1021.75328613 568.3125 1153.4375 C567.66313477 1154.53562012 567.01376953 1155.63374023 566.34472656 1156.76513672 C561.9678754 1164.08396985 557.35385956 1171.19834111 552.5625 1178.25 C552.2325 1177.59 551.9025 1176.93 551.5625 1176.25 C552.61962891 1173.65332031 552.61962891 1173.65332031 554.2890625 1170.328125 C554.90860535 1169.07800025 555.52806775 1167.82783563 556.14746094 1166.57763672 C556.47967651 1165.91439392 556.81189209 1165.25115112 557.1541748 1164.56781006 C569.87649755 1139.1088867 580.93000656 1113.03684164 590.5625 1086.25 C590.81880188 1085.53801453 591.07510376 1084.82602905 591.33917236 1084.09246826 C599.83413859 1060.43212204 607.32746345 1036.6056543 613.5625 1012.25 C613.74341187 1011.54355347 613.92432373 1010.83710693 614.11071777 1010.10925293 C626.04780257 963.25841864 633.45634599 915.48915664 636.5625 867.25 C636.6108902 866.5010849 636.6592804 865.7521698 636.70913696 864.9805603 C637.60871631 850.55203168 637.76399017 836.14103068 637.75 821.6875 C637.74939575 820.52636688 637.7487915 819.36523376 637.74816895 818.16891479 C637.72048078 798.46456228 637.25075924 778.88387124 635.5625 759.25 C635.49933594 758.51060181 635.43617187 757.77120361 635.37109375 757.00939941 C633.22788684 732.25089462 629.85645952 707.72409415 625.5625 683.25 C625.33868652 681.97350586 625.11487305 680.69701172 624.88427734 679.38183594 C610.60246261 599.87724518 583.09783292 520.07492193 543.00439453 449.78955078 C541.45912833 447.06793564 539.94482674 444.33049148 538.43359375 441.58984375 C530.98093462 428.13991177 522.96960439 415.12242638 514.5625 402.25 C513.84707031 401.14785156 513.13164063 400.04570312 512.39453125 398.91015625 C510.48105649 396.00118502 508.53224438 393.12121298 506.5625 390.25 C506.07346191 389.5369873 505.58442383 388.82397461 505.08056641 388.08935547 C497.37695963 376.88968873 489.44199596 365.91590759 481.08105469 355.19775391 C479.62330364 353.32798897 478.17416418 351.45184626 476.7265625 349.57421875 C468.20325585 338.56652661 459.16749321 328.01795662 449.79296875 317.7265625 C447.92178398 315.64892477 446.08063419 313.55123018 444.24609375 311.44140625 C440.72141787 307.4064871 437.10533433 303.46734637 433.4375 299.5625 C432.79224365 298.87551025 432.1469873 298.18852051 431.48217773 297.48071289 C423.55763256 289.08071441 415.5891489 280.6563035 406.7734375 273.1796875 C404.32101772 271.03923632 401.95246365 268.82235312 399.58032227 266.59375 C393.1159652 260.52344538 386.49136103 254.78940815 379.5625 249.25 C378.38269014 248.28037646 377.20439917 247.30890289 376.02734375 246.3359375 C296.1787462 180.49497221 201.58258383 134.52702121 48.75 103.5 C47.98584778 103.39876831 47.22169556 103.29753662 46.43438721 103.1932373 C21.92487703 99.98566793 -2.56943823 98.86551872 -27.27222061 98.93194199 C-29.41303838 98.93760054 -31.55384817 98.9404096 -33.69467163 98.94302368 C-54.6904044 98.98025389 -75.53355189 99.40648401 -96.39135742 101.99676514 C-98.53544065 102.26212134 -100.68065055 102.51657026 -102.82617188 102.77001953 C-169.12594341 110.69642508 -233.92636351 129.0022185 -294.4375 157.25 C-295.63004395 157.80445801 -296.82258789 158.35891602 -298.05126953 158.93017578 C-313.52817429 166.14778987 -328.67254644 173.82458901 -343.40966797 182.47363281 C-345.70583284 183.82074583 -348.00707028 185.15708824 -350.31298828 186.48730469 C-360.38349865 192.32065466 -370.15309914 198.51126062 -379.8125 205 C-380.52540192 205.47700348 -381.23830383 205.95400696 -381.97280884 206.44546509 C-393.36229374 214.07082943 -404.57770009 221.88122965 -415.4375 230.25 C-416.08154785 230.74532227 -416.7255957 231.24064453 -417.38916016 231.75097656 C-421.43831796 234.87653337 -425.4505042 238.04561783 -429.4375 241.25 C-430.365625 241.99507812 -431.29375 242.74015625 -432.25 243.5078125 C-443.73380434 252.82171195 -454.87751974 262.48847087 -465.66894531 272.59472656 C-467.60646573 274.40814297 -469.54925355 276.21582319 -471.4921875 278.0234375 C-484.88635501 290.44776844 -484.88635501 290.44776844 -497.30078125 303.83203125 C-499.63501784 306.47351653 -502.04183403 309.03556541 -504.46069336 311.59936523 C-509.92479258 317.39195876 -515.20579631 323.23237967 -520.17578125 329.4609375 C-522.30542104 332.08712542 -524.49813661 334.63800143 -526.72167969 337.18408203 C-533.1503516 344.55959668 -539.07440532 352.22441533 -544.86035156 360.11083984 C-546.47388417 362.29934955 -548.10597171 364.47293954 -549.7421875 366.64453125 C-568.93080013 392.21928973 -585.87778175 419.33859804 -601.4375 447.25 C-601.94748535 448.16023926 -602.4574707 449.07047852 -602.98291016 450.00830078 C-624.7820389 489.05121246 -642.60394215 529.94865681 -656.79547119 572.33825684 C-657.41076103 574.17038046 -658.03405836 575.99980903 -658.65771484 577.82910156 C-680.37372899 641.65909375 -692.56471779 708.99866202 -696.4375 776.25 C-696.49534668 777.2395166 -696.55319336 778.2290332 -696.61279297 779.24853516 C-701.21095839 861.92000194 -691.60644199 945.57929934 -607.4375 1182.25 C-608.0975 1182.58 -608.7575 1182.91 -609.4375 1183.25 C-660.50421304 1106.72550485 -695.33946476 1021.39383299 -730.4375 693.25 C-730.37433594 692.49446838 -730.31117188 691.73893677 -730.24609375 690.96051025 C-724.79872439 626.63181791 -712.34974526 563.47210881 -692.07165527 502.16748047 C-691.4686805 500.34427976 -690.86949045 498.51982865 -690.27050781 496.6953125 C-673.97714402 447.34065714 -652.0888342 398.88524607 -625.4375 354.25 C-624.84469238 353.25242676 -624.25188477 352.25485352 -623.64111328 351.22705078 C-606.43287007 322.40713919 -587.50088057 294.40035869 -566.4375 268.25 C-565.921875 267.60820801 -565.40625 266.96641602 -564.875 266.30517578 C-555.1900976 254.2659807 -545.39909424 242.34283238 -534.921875 230.98046875 C-532.94385301 228.80651062 -531.00286175 226.61181287 -529.07421875 224.39453125 C-520.42486286 214.4834718 -511.28155629 205.00524811 -502 195.6875 C-501.36263916 195.04554688 -500.72527832 194.40359375 -500.06860352 193.7421875 C-496.30790059 189.99371212 -492.42640021 186.44616824 -488.40844727 182.97583008 C-485.2327211 180.19505363 -482.18834435 177.27820943 -479.125 174.375 C-473.96300214 169.52098043 -468.71101594 164.87788255 -463.171875 160.453125 C-460.64500724 158.41719155 -458.17282173 156.33307325 -455.70898438 154.22216797 C-449.3853707 148.80808948 -442.91713146 143.61900935 -436.25878906 138.62060547 C-435.01773851 137.6866567 -433.78023776 136.74797652 -432.54589844 135.80517578 C-410.31485062 118.83478543 -386.73665638 103.10106274 -362.4375 89.25 C-361.71208008 88.83427734 -360.98666016 88.41855469 -360.23925781 87.99023438 C-347.49978596 80.71861396 -334.51134042 73.89831365 -321.4375 67.25 C-320.55594238 66.80043945 -319.67438477 66.35087891 -318.76611328 65.88769531 C-242.51722057 27.34178703 -156.80254371 6.15769193 -54.8125 -0.3125 C-53.70777344 -0.35568359 -52.60304688 -0.39886719 -51.46484375 -0.44335938 C-34.29297092 -1.05733667 -17.15987636 -0.80580938 0 0 Z " fill="#0F9045" transform="translate(861.4375,95.75)"/>
<path d="M0 0 C1.17318031 0.01421871 2.34636063 0.02843742 3.55509186 0.04308701 C54.10827637 0.71162707 103.19624209 5.5142484 153.0837996 13.56599987 C160.13479472 14.70124788 167.19239826 15.7898795 174.2524575 16.86713201 C182.89191617 18.18552264 191.52709744 19.53030891 200.16086054 20.88545394 C202.58391381 21.26432849 205.00760018 21.63889643 207.4314537 22.0126133 C238.66571315 26.848118 238.66571315 26.848118 252 33 C254.12171668 33.85971043 256.2462649 34.71250549 258.375 35.5546875 C260.25101754 36.32565361 262.12604844 37.09902569 264 37.875 C264.97710938 38.2771875 265.95421875 38.679375 266.9609375 39.09375 C269.30821932 40.06027781 271.65456355 41.02900488 274 42 C274 42.99 274 43.98 274 45 C272.68733154 45.69391846 272.68733154 45.69391846 271.34814453 46.40185547 C251.84320096 56.67640631 251.84320096 56.67640631 232.5 67.25 C231.87863663 67.59666214 231.25727325 67.94332428 230.61708069 68.30049133 C229.97653244 68.65806015 229.33598419 69.01562897 228.67602539 69.3840332 C227.93356567 69.79830566 227.19110596 70.21257812 226.42614746 70.6394043 C224.76536242 71.57078091 223.10770259 72.50774618 221.45275879 73.44946289 C206.7124466 81.82313349 191.95966094 88.87950472 175.9375 94.4375 C174.7976062 94.83398743 173.6577124 95.23047485 172.48327637 95.63897705 C97.36520196 121.28180081 15.13280506 125.07037644 -76.66036987 121.18919373 C-79.95039563 121.03530865 -83.23990095 120.93278088 -86.53225708 120.84217834 C-100.19588109 120.43287479 -113.42295929 119.09553502 -126.90625 116.88671875 C-128.94024057 116.56181079 -130.97427927 116.23720397 -133.00836182 115.91287231 C-139.5105288 114.86691838 -146.00553432 113.78010049 -152.5 112.6875 C-154.16597984 112.40930231 -154.16597984 112.40930231 -155.86561584 112.12548447 C-197.48298715 105.16790959 -237.81333222 95.82709338 -278 83 C-279.12625793 82.64127808 -280.25251587 82.28255615 -281.41290283 81.91296387 C-293.31232033 78.10523908 -305.13293992 74.10935163 -316.85461426 69.78518677 C-319.1708163 68.93748318 -321.49352672 68.10943657 -323.81738281 67.28295898 C-333.22488913 63.9149033 -342.2287719 60.26420605 -351.125 55.6875 C-352.70087891 54.90149414 -352.70087891 54.90149414 -354.30859375 54.09960938 C-361.8633915 50.273217 -361.8633915 50.273217 -363 48 C-352.17167863 44.52595521 -341.22214138 41.60678057 -330.2265625 38.71875 C-328.33045284 38.21862146 -326.4344071 37.71825053 -324.53842163 37.21765137 C-319.57682464 35.90829308 -314.61440853 34.60206709 -309.65179443 33.29656982 C-304.63717929 31.97685975 -299.62329299 30.65438706 -294.609375 29.33203125 C-288.95000511 27.8395139 -283.29057927 26.34721499 -277.63052368 24.8572998 C-276.34215685 24.51768549 -276.34215685 24.51768549 -275.02776241 24.17121029 C-273.34310974 23.72817244 -271.657912 23.28720164 -269.97215366 22.84838963 C-266.37544723 21.90917543 -262.80324316 20.94111536 -259.24128723 19.87510681 C-247.8811615 16.52993174 -236.4373859 15.49667779 -224.68359375 14.37890625 C-222.38190775 14.15196401 -220.08028363 13.92439343 -217.77871704 13.69624329 C-211.61134774 13.08999773 -205.44225927 12.50352263 -199.27235794 11.92366791 C-195.42756223 11.56156406 -191.58324505 11.19468941 -187.73898315 10.82696533 C-140.49245255 6.32493794 -93.2375695 3.28952626 -45.82277679 1.30364132 C-41.90560423 1.13703985 -37.99091604 0.94863696 -34.0763855 0.72808838 C-22.69841432 0.09169808 -11.39407565 -0.16024231 0 0 Z " fill="#8FA83F" transform="translate(875,1418)"/>
<path d="M0 0 C0.8058252 0.19867676 1.61165039 0.39735352 2.44189453 0.60205078 C30.54933719 7.66728067 57.51298427 19.97593433 81 37 C82.14057861 37.81452637 82.14057861 37.81452637 83.30419922 38.64550781 C92.65422422 45.33174484 101.63976836 52.09981905 110 60 C111.36997848 61.19328966 112.74483093 62.3810117 114.125 63.5625 C118.28318371 67.177574 122.15177865 71.05966697 126 75 C125.34 75.33 124.68 75.66 124 76 C121.90307617 75.13891602 121.90307617 75.13891602 119.29296875 73.75390625 C118.32447998 73.24996338 117.35599121 72.74602051 116.3581543 72.22680664 C114.78868042 71.40297485 114.78868042 71.40297485 113.1875 70.5625 C61.03773848 43.89709014 17.42113469 47.53775419 -37.3711853 63.4100647 C-68.41276116 72.39599418 -99.54228627 79.3393025 -132 80 C-133.09489746 80.0306958 -133.09489746 80.0306958 -134.21191406 80.06201172 C-153.51222345 80.55868068 -172.80067577 78.81744145 -192 77 C-178.43689456 80.97236895 -165.04150041 84.28934442 -151 86 C-150.28755127 86.0942627 -149.57510254 86.18852539 -148.84106445 86.28564453 C-102.57494648 91.76214214 -55.31702138 81.74936537 -10.42407227 71.51538086 C6.88458056 67.60054063 24.13231897 64.40786443 41.9375 64.5625 C43.84354004 64.57385986 43.84354004 64.57385986 45.78808594 64.58544922 C101.40587346 65.54437659 150.39057873 100.8840285 189.890625 137.0703125 C191.83789502 138.85170396 193.81524471 140.5875977 195.8125 142.3125 C208.05928663 153.02539487 219.56097376 164.43543996 231 176 C230.34 176.33 229.68 176.66 229 177 C226.53930664 175.92700195 226.53930664 175.92700195 223.41015625 174.23828125 C222.24726074 173.61969238 221.08436523 173.00110352 219.88623047 172.36376953 C219.26407654 172.02943909 218.64192261 171.69510864 218.00091553 171.35064697 C169.4676482 145.35794116 114.1910465 123.61498875 59 140 C45.29728335 144.2985202 31.89918558 149.37546101 18.5625 154.6875 C-41.43578286 178.49965054 -105.53775309 177.95906131 -165.20703125 152.39453125 C-200.59810415 136.73333312 -236.1205047 114.1318332 -261 84 C-261.82757812 83.06027344 -262.65515625 82.12054687 -263.5078125 81.15234375 C-277.43652814 65.28237804 -298 39.09067172 -298 17 C-294.44385867 18.2629287 -291.4135536 19.9299118 -288.24511719 21.9699707 C-260.08462102 39.96393442 -227.56801586 44.23494813 -195.04296875 37.42578125 C-173.31871269 32.46095292 -152.2877469 25.13659442 -131.20370483 18.01199341 C-117.51601402 13.39451267 -103.80408779 9.02053699 -89.875 5.1875 C-89.15599518 4.98867218 -88.43699036 4.78984436 -87.69619751 4.58499146 C-59.65797109 -3.1252058 -28.6792309 -7.3328702 0 0 Z " fill="#FEFEFE" transform="translate(874,618)"/>
<path d="M0 0 C1.23290016 0.00040031 1.23290016 0.00040031 2.4907074 0.00080872 C32.11306101 0.01281499 61.66995391 0.47982346 91.25 2.1875 C92.89379639 2.28224609 92.89379639 2.28224609 94.57080078 2.37890625 C159.52726099 6.18287292 224.22227004 13.55138076 288.25 25.1875 C288.25 29.1875 288.25 29.1875 286.88671875 31.01171875 C282.1122736 35.57566732 277.1714242 39.85161381 272.01171875 43.9765625 C270.30626159 45.34189313 268.61734021 46.72854806 266.95703125 48.1484375 C240.69850161 70.29418539 206.54584556 81.85567774 172.25 79.1875 C164.14579909 78.29750213 156.09776684 77.01055148 148.04296875 75.76074219 C128.87445236 72.86374962 109.59807877 70.46037996 90.25 69.1875 C88.96407959 69.09992432 87.67815918 69.01234863 86.35327148 68.92211914 C71.84784906 68.00712597 57.3421635 67.9865287 42.8125 68 C41.50410156 68.00093658 40.19570313 68.00187317 38.84765625 68.00283813 C-8.34152101 68.06260202 -55.11188189 72.25850482 -101.8605957 78.66333008 C-102.61844864 78.7659314 -103.37630157 78.86853271 -104.15711975 78.97424316 C-106.16688921 79.24760085 -108.17577304 79.52744869 -110.18457031 79.80786133 C-115.38931425 80.36205037 -120.34339271 80.65431758 -125.375 79.0625 C-126.44621094 78.74925781 -126.44621094 78.74925781 -127.5390625 78.4296875 C-134.42050217 74.56343694 -136.46236588 67.54697043 -138.875 60.5 C-139.43272095 58.91022339 -139.43272095 58.91022339 -140.00170898 57.28833008 C-143.43469888 47.37119509 -146.63891299 37.37762064 -149.8125 27.375 C-150.06010071 26.59871246 -150.30770142 25.82242493 -150.56280518 25.02261353 C-151.26862597 22.80227409 -151.96588943 20.57944448 -152.66015625 18.35546875 C-152.872202 17.68981903 -153.08424774 17.02416931 -153.30271912 16.33834839 C-154.30880701 13.07811891 -154.75 10.64914688 -154.75 7.1875 C-134.92539478 5.12386543 -115.0863173 3.69243455 -95.1875 2.5625 C-94.11496979 2.50033295 -93.04243958 2.43816589 -91.93740845 2.37411499 C-61.29240525 0.61154989 -30.68812957 -0.02251739 0 0 Z " fill="#128F45" transform="translate(413.75,1117.8125)"/>
<path d="M0 0 C0.8058252 0.19867676 1.61165039 0.39735352 2.44189453 0.60205078 C28.46874884 7.14429339 56.94553634 18.00476557 78 35 C78.33 35.66 78.66 36.32 79 37 C75.76888843 35.7432002 72.6498702 34.38087904 69.55078125 32.828125 C42.7510014 19.59169546 15.43283969 12.53661325 -14.5625 12.6875 C-15.35601868 12.68998749 -16.14953735 12.69247498 -16.96710205 12.69503784 C-29.54230574 12.75584332 -41.66635283 13.37766419 -54 16 C-55.09876465 16.23106445 -56.1975293 16.46212891 -57.32958984 16.70019531 C-88.69655208 23.42803424 -118.99484461 33.20657548 -149.4375 43.20703125 C-204.27121939 61.21816429 -204.27121939 61.21816429 -232.5 61.125 C-234.25763672 61.13080078 -234.25763672 61.13080078 -236.05078125 61.13671875 C-252.76407832 61.11796084 -252.76407832 61.11796084 -257 59 C-245.98579294 73.10538779 -234.15500025 85.99861056 -220 97 C-219.46165527 97.42007324 -218.92331055 97.84014648 -218.36865234 98.27294922 C-176.42495456 130.75131641 -123.00175565 149.49924355 -69.68359375 143.38671875 C-49.09071244 140.46590231 -29.0315435 134.12438201 -9.14916992 128.17236328 C57.89334303 108.10892408 118.31308681 108.99691885 180.875 142.6875 C188.68112794 146.97410205 196.28803798 151.55023878 203.8125 156.3125 C204.70114746 156.87477295 205.58979492 157.4370459 206.50537109 158.01635742 C211.58254352 161.28616422 216.39820006 164.75916354 221.10864258 168.5390625 C223.0961963 170.13801661 223.0961963 170.13801661 225.875 171.6875 C228.24420331 173.15083145 229.48425939 174.68650117 231 177 C225.10140967 175.34408345 219.98927331 172.44576293 214.625 169.5625 C180.17531054 151.38087219 143.35967697 136.05572835 104 134 C103.20464844 133.95746094 102.40929687 133.91492188 101.58984375 133.87109375 C72.51451042 133.12301485 45.08597254 144.12312706 18.5625 154.6875 C-41.43578286 178.49965054 -105.53775309 177.95906131 -165.20703125 152.39453125 C-200.59810415 136.73333312 -236.1205047 114.1318332 -261 84 C-261.82757812 83.06027344 -262.65515625 82.12054687 -263.5078125 81.15234375 C-277.43652814 65.28237804 -298 39.09067172 -298 17 C-294.44385867 18.2629287 -291.4135536 19.9299118 -288.24511719 21.9699707 C-260.08462102 39.96393442 -227.56801586 44.23494813 -195.04296875 37.42578125 C-173.31871269 32.46095292 -152.2877469 25.13659442 -131.20370483 18.01199341 C-117.51601402 13.39451267 -103.80408779 9.02053699 -89.875 5.1875 C-89.15599518 4.98867218 -88.43699036 4.78984436 -87.69619751 4.58499146 C-59.65797109 -3.1252058 -28.6792309 -7.3328702 0 0 Z " fill="#E7E8E8" transform="translate(874,618)"/>
<path d="M0 0 C0.99 2.475 0.99 2.475 2 5 C-5.18161441 9.37485865 -12.46289494 13.53983683 -19.8125 17.625 C-27.7322369 22.04249476 -35.63464176 26.48637854 -43.5 31 C-56.34528685 38.36543368 -69.27942916 45.57139862 -82.20703125 52.79101562 C-93.84455493 59.29183013 -105.46571531 65.81673729 -117.02807617 72.45043945 C-125.02696117 77.03266548 -133.07083348 81.53333873 -141.125 86.01757812 C-142.10597656 86.56478516 -143.08695312 87.11199219 -144.09765625 87.67578125 C-145.06203613 88.21154785 -146.02641602 88.74731445 -147.02001953 89.29931641 C-149.12491955 90.50058902 -151.20753763 91.74131245 -153.27294922 93.00927734 C-154.33658691 93.65977051 -155.40022461 94.31026367 -156.49609375 94.98046875 C-157.45572021 95.58141357 -158.41534668 96.1823584 -159.40405273 96.80151367 C-162 98 -162 98 -164.13867188 97.96044922 C-166.69655638 96.64057545 -167.70261995 95.05093834 -169.28515625 92.65234375 C-170.1963623 91.29133545 -170.1963623 91.29133545 -171.12597656 89.90283203 C-171.7650293 88.92427246 -172.40408203 87.94571289 -173.0625 86.9375 C-174.41245995 84.91256007 -175.76272229 82.88782171 -177.11328125 80.86328125 C-177.77537598 79.86248535 -178.4374707 78.86168945 -179.11962891 77.83056641 C-181.62069484 74.06565361 -184.17850984 70.34199789 -186.75 66.625 C-187.63698861 65.33742544 -188.52371022 64.04966691 -189.41015625 62.76171875 C-189.8395752 62.1382959 -190.26899414 61.51487305 -190.71142578 60.87255859 C-191.99573734 59.0061945 -193.27755351 57.13814195 -194.55859375 55.26953125 C-200.13498689 47.13859513 -205.74648553 39.03244935 -211.375 30.9375 C-212.05328857 29.96159912 -212.73157715 28.98569824 -213.43041992 27.98022461 C-214.40458862 26.58042358 -214.40458862 26.58042358 -215.3984375 25.15234375 C-216.32221191 23.82372314 -216.32221191 23.82372314 -217.26464844 22.46826172 C-218.80893706 20.27175666 -220.38671556 18.10496113 -221.9765625 15.94140625 C-224 13 -224 13 -224 11 C-197.30444947 9.56024744 -170.60862247 8.12572122 -143.91246128 6.69733429 C-131.51564469 6.03391771 -119.11892253 5.36882225 -106.72241211 4.69970703 C-95.91156452 4.11618405 -85.10054966 3.53587977 -74.28932613 2.95936251 C-68.57041139 2.65428609 -62.85159026 2.34765115 -57.132967 2.03715515 C-51.73816038 1.74429213 -46.34313824 1.45576953 -40.94792938 1.17041588 C-38.97960228 1.06557252 -37.01135517 0.95921342 -35.04320335 0.85112953 C-23.34835043 0.20992851 -11.71280878 -0.13939616 0 0 Z " fill="#128F45" transform="translate(531,1237)"/>
</svg>
